<svg xmlns="http://www.w3.org/2000/svg" viewBox="0 0 250 98.894"><defs><clipPath id="a"><path style="fill:none" d="M0 0h250v98.894H0z"/></clipPath></defs><g data-name="Layer 2"><g style="clip-path:url(#a)" data-name="Layer 1"><path d="M126.992 45.554a30.721 30.721 0 0 0-7.622-8.047 34.023 34.023 0 0 0-20.69-6.978c-.787 0-1.563.036-2.336.088L109.241 3.24H88.835L67.455 49.44v.001c-2.45 6.204-3.3 9.282-3.298 14.406a39.23 39.23 0 0 0 .482 6.039 35.783 35.783 0 0 0 4.44 12.785 31.05 31.05 0 0 0 8.808 9.545 33.22 33.22 0 0 0 6.844 3.702 34.184 34.184 0 0 0 42.261-50.364M98.735 79.86a15.014 15.014 0 1 1 15.014-15.014 15.014 15.014 0 0 1-15.014 15.014" style="fill:#fff"/><path style="fill:#f47920" d="m218.525 3.946-27.192 60.268-4.587-60.268h-30.945l-27.214 90.513h22.244l18.066-57.456 4.586 57.456h26.693l26.627-59.384 1.117-2.036v61.42H250V3.946h-31.475z"/><path d="M66.779 32.583C65.977 14.367 51.584 0 33.409 0a33.408 33.408 0 1 0 0 66.816c.342 0 .681-.015 1.02-.026L20.636 93.938h20.028l21.86-44.106a37.757 37.757 0 0 0 4.255-17.25m-33.37 16.215a15.014 15.014 0 1 1 15.013-15.014 15.014 15.014 0 0 1-15.014 15.014" style="fill:#fff"/></g></g></svg>