<?xml version="1.0" encoding="utf-8"?>
<!-- Generator: Adobe Illustrator 25.4.1, SVG Export Plug-In . SVG Version: 6.00 Build 0)  -->
<svg version="1.1" id="Layer_1" xmlns="http://www.w3.org/2000/svg" xmlns:xlink="http://www.w3.org/1999/xlink" x="0px" y="0px"
	 viewBox="0 0 500 500" style="enable-background:new 0 0 500 500;" xml:space="preserve">
<style type="text/css">
	.st0{fill:#CC0001;}
	.st1{fill:#FFFFFF;}
	.st2{fill:#010066;}
	.st3{fill:#FFCC00;}
	.st4{fill:#ED2939;}
	.st5{fill:#969696;}
	.st6{fill:#FF8A00;stroke:#FF8A00;stroke-width:0.75;stroke-miterlimit:10;}
	.st7{fill:#A9A9A9;stroke:#A9A9A9;stroke-width:0.5;stroke-miterlimit:10;}
	.st8{fill:none;}
	.st9{fill:#FF8A00;}
	.st10{fill:#A9A9A9;stroke:#A9A9A9;stroke-width:2;stroke-miterlimit:10;}
	.st11{fill:#A9A9A9;}
	.st12{fill:#F5891F;}
	.st13{fill:#87C040;}
	.st14{fill:#61757E;}
	.st15{fill:#231F20;}
	.st16{fill:#C1122F;}
	.st17{fill:#2E368E;}
	.st18{fill:url(#SVGID_1_);}
	.st19{fill:#1A477E;}
	.st20{fill:#AB2442;}
	.st21{fill:#0524DD;}
	.st22{fill:#F47920;}
	.st23{fill:url(#SVGID_00000155860684042650018000000006313347131716040362_);}
	.st24{fill:url(#SVGID_00000124154877143117971660000012832076840713823618_);}
	.st25{fill:#F16522;}
	.st26{fill:url(#SVGID_00000162320537471579108020000002051526986021989523_);}
	.st27{fill:url(#SVGID_00000015342292326717808000000002021754965885192321_);}
	.st28{clip-path:url(#SVGID_00000124126281831095863540000014097060242855929267_);}
	.st29{fill:#CE0000;}
	.st30{fill:#D6202A;}
	.st31{fill:#1C427B;}
	.st32{fill:#FF8A00;stroke:#FF8A00;stroke-miterlimit:10;}
	.st33{fill:#252525;}
	.st34{fill:#BA1F63;}
	.st35{clip-path:url(#SVGID_00000003820385567956452420000000789546706447344284_);fill:#FBB41C;}
	.st36{clip-path:url(#SVGID_00000003820385567956452420000000789546706447344284_);fill:#358FCD;}
	.st37{clip-path:url(#SVGID_00000003820385567956452420000000789546706447344284_);fill:#EB1F26;}
	.st38{clip-path:url(#SVGID_00000003820385567956452420000000789546706447344284_);fill:#691E5B;}
	.st39{fill:#FFFFFF;stroke:#FFFFFF;stroke-miterlimit:10;}
	.st40{fill:#BD9A61;}
	.st41{fill:#B90C13;}
	.st42{fill:url(#SVGID_00000080899438187131439500000013134818195526271105_);}
	.st43{fill:url(#SVGID_00000035527030389383615740000004397464796402997945_);}
	.st44{fill:url(#SVGID_00000169519824110063368620000010687576582800073602_);}
	.st45{fill:url(#SVGID_00000065058177971284398690000002601116167313918374_);}
	.st46{fill:url(#SVGID_00000157276784060993141550000005110189446404700349_);}
	.st47{fill:url(#SVGID_00000142883441155602089050000013028835800784764830_);}
	.st48{fill:url(#SVGID_00000057130794026069161380000015364889340404162195_);}
	.st49{fill:#FE439E;}
	.st50{fill:#F7931A;}
	.st51{fill:#35CBA0;}
	.st52{fill:#7747FC;}
	.st53{fill:#FDFDFD;}
	.st54{fill:#C9BBF2;}
	.st55{opacity:0.6;}
	.st56{fill:#CDC0E2;}
	.st57{fill:#9680EA;}
	.st58{fill:#CCC2FF;}
	.st59{fill:#E5E5E5;}
	.st60{fill:#F8F8F8;}
	.st61{fill:#696969;}
</style>
<g>
	<circle class="st1" cx="250" cy="250.02" r="45.93"/>
	<path class="st1" d="M250,48.19C138.56,48.19,48.19,138.56,48.19,250S138.56,451.81,250,451.81S451.81,361.44,451.81,250
		S361.44,48.19,250,48.19z M386.95,306.75c-0.69,14.69-3.03,24.7-6.42,33.46c-3.55,9.08-8.23,16.75-15.9,24.42
		c-7.63,7.67-15.34,12.39-24.34,15.9c-8.8,3.43-18.81,5.73-33.46,6.42c-14.69,0.69-19.37,0.85-56.79,0.85s-42.1-0.16-56.79-0.85
		c-14.69-0.69-24.7-3.03-33.46-6.42c-9.08-3.55-16.75-8.23-24.42-15.9c-7.67-7.63-12.39-15.34-15.9-24.34
		c-3.43-8.8-5.73-18.81-6.42-33.46c-0.69-14.69-0.85-19.37-0.85-56.79s0.16-42.1,0.85-56.79c0.69-14.69,3.03-24.7,6.42-33.46
		c3.55-9.08,8.23-16.75,15.9-24.42c7.63-7.67,15.34-12.39,24.38-15.86c8.8-3.43,18.81-5.73,33.46-6.42
		c14.69-0.69,19.37-0.85,56.79-0.85s42.1,0.16,56.75,0.81c14.69,0.69,24.7,3.03,33.46,6.42c9.08,3.55,16.75,8.23,24.42,15.9
		c7.67,7.63,12.39,15.34,15.9,24.34c3.43,8.8,5.73,18.81,6.42,33.46c0.69,14.69,0.85,19.37,0.85,56.79
		C387.79,287.37,387.63,292.06,386.95,306.75z"/>
	<path class="st1" d="M357.36,168.75c-2.5-6.42-5.49-11.02-10.29-15.82c-4.8-4.8-9.4-7.79-15.82-10.29
		c-4.84-1.9-12.15-4.16-25.59-4.76c-14.53-0.69-18.89-0.81-55.66-0.81s-41.13,0.12-55.66,0.81c-13.44,0.65-20.75,2.87-25.59,4.76
		c-6.42,2.5-11.02,5.49-15.82,10.29c-4.8,4.8-7.79,9.4-10.29,15.82c-1.9,4.84-4.16,12.15-4.76,25.59
		c-0.69,14.53-0.81,18.89-0.81,55.66c0,36.77,0.16,41.13,0.81,55.66c0.65,13.44,2.87,20.75,4.76,25.59
		c2.5,6.42,5.49,11.02,10.29,15.82c4.8,4.8,9.4,7.79,15.82,10.29c4.84,1.9,12.15,4.16,25.59,4.76c14.53,0.69,18.89,0.81,55.66,0.81
		s41.13-0.16,55.66-0.81c13.44-0.65,20.75-2.87,25.59-4.76c6.42-2.5,11.02-5.49,15.82-10.29c4.8-4.8,7.79-9.4,10.29-15.82
		c1.9-4.84,4.16-12.15,4.76-25.59c0.69-14.53,0.81-18.89,0.81-55.66c0-36.77-0.16-41.13-0.81-55.66
		C361.48,180.9,359.26,173.6,357.36,168.75z M250,320.77c-39.07,0-70.75-31.68-70.75-70.75c0-39.07,31.68-70.75,70.75-70.75
		s70.75,31.68,70.75,70.75C320.75,289.09,289.07,320.77,250,320.77z M323.54,193.01c-9.14,0-16.55-7.41-16.55-16.55
		c0-9.14,7.41-16.55,16.55-16.55c9.14,0,16.55,7.41,16.55,16.55C340.09,185.6,332.68,193.01,323.54,193.01z"/>
</g>
</svg>
