<?xml version="1.0" encoding="utf-8"?>
<!-- Generator: Adobe Illustrator 25.4.1, SVG Export Plug-In . SVG Version: 6.00 Build 0)  -->
<svg version="1.1" id="Layer_1" xmlns="http://www.w3.org/2000/svg" xmlns:xlink="http://www.w3.org/1999/xlink" x="0px" y="0px"
	 viewBox="0 0 500 500" style="enable-background:new 0 0 500 500;" xml:space="preserve">
<style type="text/css">
	.st0{fill:#CC0001;}
	.st1{fill:#FFFFFF;}
	.st2{fill:#010066;}
	.st3{fill:#FFCC00;}
	.st4{fill:#ED2939;}
	.st5{fill:#969696;}
	.st6{fill:#FF8A00;stroke:#FF8A00;stroke-width:0.75;stroke-miterlimit:10;}
	.st7{fill:#A9A9A9;stroke:#A9A9A9;stroke-width:0.5;stroke-miterlimit:10;}
	.st8{fill:none;}
	.st9{fill:#FF8A00;}
	.st10{fill:#A9A9A9;stroke:#A9A9A9;stroke-width:2;stroke-miterlimit:10;}
	.st11{fill:#A9A9A9;}
	.st12{fill:#F5891F;}
	.st13{fill:#87C040;}
	.st14{fill:#61757E;}
	.st15{fill:#231F20;}
	.st16{fill:#C1122F;}
	.st17{fill:#2E368E;}
	.st18{fill:url(#SVGID_1_);}
	.st19{fill:#1A477E;}
	.st20{fill:#AB2442;}
	.st21{fill:#0524DD;}
	.st22{fill:#F47920;}
	.st23{fill:url(#SVGID_00000165210017045478235150000014387505427610560923_);}
	.st24{fill:url(#SVGID_00000162352291485174745270000003581792162797154182_);}
	.st25{fill:#F16522;}
	.st26{fill:url(#SVGID_00000131356762757945132940000007823086113995868808_);}
	.st27{fill:url(#SVGID_00000055700900347322110850000004018066908758391435_);}
	.st28{clip-path:url(#SVGID_00000125596592529152060370000008636886211511136950_);}
	.st29{fill:#CE0000;}
	.st30{fill:#D6202A;}
	.st31{fill:#1C427B;}
	.st32{fill:#FF8A00;stroke:#FF8A00;stroke-miterlimit:10;}
	.st33{fill:#252525;}
	.st34{fill:#BA1F63;}
	.st35{clip-path:url(#SVGID_00000062880117091294319520000010882263649204236438_);fill:#FBB41C;}
	.st36{clip-path:url(#SVGID_00000062880117091294319520000010882263649204236438_);fill:#358FCD;}
	.st37{clip-path:url(#SVGID_00000062880117091294319520000010882263649204236438_);fill:#EB1F26;}
	.st38{clip-path:url(#SVGID_00000062880117091294319520000010882263649204236438_);fill:#691E5B;}
	.st39{fill:#FFFFFF;stroke:#FFFFFF;stroke-miterlimit:10;}
	.st40{fill:#BD9A61;}
	.st41{fill:#B90C13;}
	.st42{fill:url(#SVGID_00000150802118795721394650000017002775934555112637_);}
	.st43{fill:url(#SVGID_00000181055576743705640360000013359756015956350133_);}
	.st44{fill:url(#SVGID_00000174571564298366187970000017976435288134555554_);}
	.st45{fill:url(#SVGID_00000037662707553678634620000015147507027354651829_);}
	.st46{fill:url(#SVGID_00000154397990597727736020000012418575712575135627_);}
	.st47{fill:url(#SVGID_00000067947033099847489390000008569364384619014841_);}
	.st48{fill:url(#SVGID_00000045614679480246496570000005703635389140600449_);}
	.st49{fill:#FE439E;}
	.st50{fill:#F7931A;}
	.st51{fill:#35CBA0;}
	.st52{fill:#7747FC;}
	.st53{fill:#FDFDFD;}
	.st54{fill:#C9BBF2;}
	.st55{opacity:0.6;}
	.st56{fill:#CDC0E2;}
	.st57{fill:#9680EA;}
	.st58{fill:#CCC2FF;}
	.st59{fill:#E5E5E5;}
	.st60{fill:#F8F8F8;}
	.st61{fill:#696969;}
</style>
<g>
	<path class="st1" d="M250,46.89C137.82,46.89,46.89,137.82,46.89,250c0,112.18,90.94,203.11,203.11,203.11
		S453.11,362.18,453.11,250C453.11,137.82,362.18,46.89,250,46.89z M334.63,204.3c0,1.69,0,4.23,0,5.92
		c0,63.47-44.85,136.26-126.95,136.26c-25.39,0-49.09-8.46-68.55-22c4.23,0.85,7.62,0.85,11,0.85c20.31,0,39.78-7.62,55.01-20.31
		c-19.47,0-35.54-13.54-41.47-33.01c2.54,0.85,5.92,0.85,8.46,0.85c4.23,0,8.46-0.85,11.85-1.69
		c-20.31-5.08-35.54-24.54-35.54-47.39v-0.85c5.92,3.39,12.69,5.92,20.31,5.92c-11.85-8.46-19.46-22.85-19.46-39.78
		c0-9.31,1.69-17.77,5.92-24.54c22,28.77,55.01,48.24,92.25,49.93c-0.85-3.39-0.85-7.62-0.85-11c0-27.08,20.31-48.24,44.85-48.24
		c12.69,0,23.7,5.92,32.16,15.23c11-2.54,20.31-6.77,28.77-11.85c-3.39,11-10.16,20.31-19.47,26.24c8.46-0.85,17.77-3.39,25.39-7.62
		C352.4,187.37,344.79,195.84,334.63,204.3z"/>
</g>
</svg>
