<?xml version="1.0" encoding="utf-8"?>
<!-- Generator: Adobe Illustrator 25.4.1, SVG Export Plug-In . SVG Version: 6.00 Build 0)  -->
<svg version="1.1" id="Layer_1" xmlns="http://www.w3.org/2000/svg" xmlns:xlink="http://www.w3.org/1999/xlink" x="0px" y="0px"
	 viewBox="0 0 500 500" style="enable-background:new 0 0 500 500;" xml:space="preserve">
<style type="text/css">
	.st0{fill:#CC0001;}
	.st1{fill:#FFFFFF;}
	.st2{fill:#010066;}
	.st3{fill:#FFCC00;}
	.st4{fill:#ED2939;}
	.st5{fill:#969696;}
	.st6{fill:#FF8A00;stroke:#FF8A00;stroke-width:0.75;stroke-miterlimit:10;}
	.st7{fill:#A9A9A9;stroke:#A9A9A9;stroke-width:0.5;stroke-miterlimit:10;}
	.st8{fill:none;}
	.st9{fill:#FF8A00;}
	.st10{fill:#A9A9A9;stroke:#A9A9A9;stroke-width:2;stroke-miterlimit:10;}
	.st11{fill:#A9A9A9;}
	.st12{fill:#F5891F;}
	.st13{fill:#87C040;}
	.st14{fill:#61757E;}
	.st15{fill:#231F20;}
	.st16{fill:#C1122F;}
	.st17{fill:#2E368E;}
	.st18{fill:url(#SVGID_1_);}
	.st19{fill:#1A477E;}
	.st20{fill:#AB2442;}
	.st21{fill:#0524DD;}
	.st22{fill:#F47920;}
	.st23{fill:url(#SVGID_00000113332541629193437950000009485477307341318542_);}
	.st24{fill:url(#SVGID_00000008828507927193484580000005599627259909667511_);}
	.st25{fill:#F16522;}
	.st26{fill:url(#SVGID_00000183232446356236360690000005677676140305136812_);}
	.st27{fill:url(#SVGID_00000071541533428951251480000011245590005661812627_);}
	.st28{clip-path:url(#SVGID_00000166675021402452357580000008013697863849101753_);}
	.st29{fill:#CE0000;}
	.st30{fill:#D6202A;}
	.st31{fill:#1C427B;}
	.st32{fill:#FF8A00;stroke:#FF8A00;stroke-miterlimit:10;}
	.st33{fill:#252525;}
	.st34{fill:#BA1F63;}
	.st35{clip-path:url(#SVGID_00000083778463629460849240000007087673635011944100_);fill:#FBB41C;}
	.st36{clip-path:url(#SVGID_00000083778463629460849240000007087673635011944100_);fill:#358FCD;}
	.st37{clip-path:url(#SVGID_00000083778463629460849240000007087673635011944100_);fill:#EB1F26;}
	.st38{clip-path:url(#SVGID_00000083778463629460849240000007087673635011944100_);fill:#691E5B;}
	.st39{fill:#FFFFFF;stroke:#FFFFFF;stroke-miterlimit:10;}
	.st40{fill:#BD9A61;}
	.st41{fill:#B90C13;}
	.st42{fill:url(#SVGID_00000032614834982873324370000003503617493098569858_);}
	.st43{fill:url(#SVGID_00000147191562181773767990000007421960918090292664_);}
	.st44{fill:url(#SVGID_00000092438184781113642510000013359298027885476482_);}
	.st45{fill:url(#SVGID_00000026129076219638931740000004614517510309477535_);}
	.st46{fill:url(#SVGID_00000173131134717752760490000016713074604591687569_);}
	.st47{fill:url(#SVGID_00000023280404256729532090000017267493817978840199_);}
	.st48{fill:url(#SVGID_00000008144084423495207130000017380338587092301186_);}
	.st49{fill:#FE439E;}
	.st50{fill:#F7931A;}
	.st51{fill:#35CBA0;}
	.st52{fill:#7747FC;}
	.st53{fill:#FDFDFD;}
	.st54{fill:#C9BBF2;}
	.st55{opacity:0.6;}
	.st56{fill:#CDC0E2;}
	.st57{fill:#9680EA;}
	.st58{fill:#CCC2FF;}
	.st59{fill:#E5E5E5;}
	.st60{fill:#F8F8F8;}
	.st61{fill:#696969;}
</style>
<g>
	<polygon class="st1" points="219.59,286.51 290.72,246.05 219.59,205.59 	"/>
	<path class="st1" d="M250,45.03C136.82,45.03,45.03,136.82,45.03,250S136.82,454.97,250,454.97S454.97,363.18,454.97,250
		S363.18,45.03,250,45.03z M377.83,312.01c-3.12,11.81-12.34,21.07-24.06,24.23c-21.19,5.74-106.34,5.74-106.34,5.74
		s-85.1,0-106.34-5.74c-11.72-3.16-20.95-12.42-24.06-24.23c-5.7-21.36-5.7-65.96-5.7-65.96s0-44.6,5.74-65.96
		c3.12-11.81,12.34-21.07,24.06-24.23c21.19-5.74,106.34-5.74,106.34-5.74s85.1,0,106.34,5.74c11.72,3.16,20.95,12.42,24.06,24.23
		c5.66,21.36,5.66,65.96,5.66,65.96S383.53,290.65,377.83,312.01z"/>
</g>
</svg>
