<?xml version="1.0" encoding="utf-8"?>
<!-- Generator: Adobe Illustrator 25.4.1, SVG Export Plug-In . SVG Version: 6.00 Build 0)  -->
<svg version="1.1" id="Layer_1" xmlns="http://www.w3.org/2000/svg" xmlns:xlink="http://www.w3.org/1999/xlink" x="0px" y="0px"
	 viewBox="0 0 500 500" style="enable-background:new 0 0 500 500;" xml:space="preserve">
<style type="text/css">
	.st0{fill:#CC0001;}
	.st1{fill:#FFFFFF;}
	.st2{fill:#010066;}
	.st3{fill:#FFCC00;}
	.st4{fill:#ED2939;}
	.st5{fill:#969696;}
	.st6{fill:#FF8A00;stroke:#FF8A00;stroke-width:0.75;stroke-miterlimit:10;}
	.st7{fill:#A9A9A9;stroke:#A9A9A9;stroke-width:0.5;stroke-miterlimit:10;}
	.st8{fill:none;}
	.st9{fill:#FF8A00;}
	.st10{fill:#A9A9A9;stroke:#A9A9A9;stroke-width:2;stroke-miterlimit:10;}
	.st11{fill:#A9A9A9;}
	.st12{fill:#F5891F;}
	.st13{fill:#87C040;}
	.st14{fill:#61757E;}
	.st15{fill:#231F20;}
	.st16{fill:#C1122F;}
	.st17{fill:#2E368E;}
	.st18{fill:url(#SVGID_1_);}
	.st19{fill:#1A477E;}
	.st20{fill:#AB2442;}
	.st21{fill:#0524DD;}
	.st22{fill:#F47920;}
	.st23{fill:url(#SVGID_00000106833179638916834300000012806275490872039853_);}
	.st24{fill:url(#SVGID_00000022521528347608929680000014710048082871075984_);}
	.st25{fill:#F16522;}
	.st26{fill:url(#SVGID_00000147935603652266871590000003139006354823581879_);}
	.st27{fill:url(#SVGID_00000127014573129182748260000011171324588312006298_);}
	.st28{clip-path:url(#SVGID_00000164508945262229994730000016513271672902924201_);}
	.st29{fill:#CE0000;}
	.st30{fill:#D6202A;}
	.st31{fill:#1C427B;}
	.st32{fill:#FF8A00;stroke:#FF8A00;stroke-miterlimit:10;}
	.st33{fill:#252525;}
	.st34{fill:#BA1F63;}
	.st35{clip-path:url(#SVGID_00000058583451978134132600000008576979921665016208_);fill:#FBB41C;}
	.st36{clip-path:url(#SVGID_00000058583451978134132600000008576979921665016208_);fill:#358FCD;}
	.st37{clip-path:url(#SVGID_00000058583451978134132600000008576979921665016208_);fill:#EB1F26;}
	.st38{clip-path:url(#SVGID_00000058583451978134132600000008576979921665016208_);fill:#691E5B;}
	.st39{fill:#FFFFFF;stroke:#FFFFFF;stroke-miterlimit:10;}
	.st40{fill:#BD9A61;}
	.st41{fill:#B90C13;}
	.st42{fill:url(#SVGID_00000147934842500679154090000001037387715935380397_);}
	.st43{fill:url(#SVGID_00000049918622019154456840000013201662794476183967_);}
	.st44{fill:url(#SVGID_00000096032597044188045930000010178104697771769235_);}
	.st45{fill:url(#SVGID_00000021808743460611249680000001993075412883344027_);}
	.st46{fill:url(#SVGID_00000047750447944669659510000005642903632273901238_);}
	.st47{fill:url(#SVGID_00000125580795103616450780000016031215653665689781_);}
	.st48{fill:url(#SVGID_00000082342673659520944240000012008516380967475843_);}
	.st49{fill:#FE439E;}
	.st50{fill:#F7931A;}
	.st51{fill:#35CBA0;}
	.st52{fill:#7747FC;}
	.st53{fill:#FDFDFD;}
	.st54{fill:#C9BBF2;}
	.st55{opacity:0.6;}
	.st56{fill:#CDC0E2;}
	.st57{fill:#9680EA;}
	.st58{fill:#CCC2FF;}
	.st59{fill:#E5E5E5;}
	.st60{fill:#F8F8F8;}
	.st61{fill:#696969;}
</style>
<g>
	<path class="st1" d="M241.22,452.83c-108.05,0-195.95-87.9-195.95-195.95s87.9-195.95,195.95-195.95c18.69,0,37.19,2.63,54.97,7.82
		c6.04,1.76,9.5,8.08,7.74,14.12c-1.76,6.04-8.09,9.5-14.12,7.74c-15.71-4.58-32.06-6.91-48.59-6.91
		c-95.49,0-173.17,77.69-173.17,173.17s77.69,173.17,173.17,173.17S414.4,352.37,414.4,256.88c0-14.47-1.79-28.85-5.31-42.74
		c-1.55-6.1,2.14-12.29,8.23-13.84c6.09-1.55,12.29,2.14,13.84,8.23c3.99,15.72,6.01,31.98,6.01,48.34
		C437.17,364.93,349.27,452.83,241.22,452.83z"/>
	<path class="st1" d="M390.2,176.22c-6.29,0-11.39-5.1-11.39-11.39V58.56c0-6.29,5.1-11.39,11.39-11.39s11.39,5.1,11.39,11.39
		v106.28C401.59,171.12,396.49,176.22,390.2,176.22z"/>
	<path class="st1" d="M443.34,123.08H337.06c-6.29,0-11.39-5.1-11.39-11.39c0-6.29,5.1-11.39,11.39-11.39h106.28
		c6.29,0,11.39,5.1,11.39,11.39C454.72,117.99,449.63,123.08,443.34,123.08z"/>
	<g>
		<path class="st1" d="M163.36,326.32v-101.8c-18.94,14.54-31.7,21.81-38.26,21.81c-3.13,0-5.91-1.25-8.33-3.75
			c-2.42-2.5-3.64-5.39-3.64-8.67c0-3.81,1.19-6.6,3.58-8.39c2.39-1.79,6.6-4.1,12.64-6.94c9.02-4.25,16.24-8.72,21.65-13.42
			c5.41-4.7,10.2-9.96,14.38-15.78c4.18-5.82,6.9-9.4,8.17-10.74c1.27-1.34,3.65-2.01,7.16-2.01c3.95,0,7.12,1.53,9.51,4.59
			c2.39,3.06,3.58,7.27,3.58,12.64v128.09c0,14.99-5.11,22.48-15.33,22.48c-4.55,0-8.21-1.53-10.96-4.59
			C164.74,336.8,163.36,332.29,163.36,326.32z"/>
		<path class="st1" d="M231.84,219.26c0-7.46,2.03-14.49,6.1-21.09c4.06-6.6,10.03-11.87,17.9-15.83
			c7.87-3.95,17.06-5.93,27.58-5.93c8.87,0,16.67,1.16,23.38,3.47c6.71,2.31,12.31,5.5,16.78,9.57c4.47,4.06,7.79,8.65,9.96,13.76
			c2.16,5.11,3.24,10.54,3.24,16.28c0,7.31-1.88,13.84-5.65,19.58c-3.77,5.74-9.38,10.44-16.84,14.09
			c6.34,2.46,11.6,5.69,15.77,9.68c4.18,3.99,7.33,8.62,9.45,13.87c2.13,5.26,3.19,11.09,3.19,17.51c0,9.4-2.28,17.92-6.82,25.56
			c-4.55,7.64-11.23,13.63-20.02,17.96c-8.8,4.32-19.17,6.49-31.1,6.49c-12.38,0-22.97-2.17-31.77-6.49
			c-8.8-4.33-15.44-10.27-19.91-17.84c-4.47-7.57-6.71-16.05-6.71-25.45c0-20.06,9.47-33.82,28.42-41.28
			C239.49,246,231.84,234.7,231.84,219.26z M312.05,293.32c0-5.82-1.19-10.89-3.58-15.21c-2.39-4.33-5.74-7.64-10.07-9.96
			c-4.33-2.31-9.17-3.47-14.54-3.47c-7.61,0-13.98,2.54-19.13,7.61c-5.15,5.07-7.72,12.16-7.72,21.26c0,5.82,1.21,10.95,3.63,15.38
			c2.42,4.44,5.72,7.87,9.9,10.29c4.18,2.42,8.84,3.63,13.98,3.63c5.22,0,9.92-1.23,14.09-3.69c4.18-2.46,7.46-5.93,9.85-10.4
			C310.86,304.28,312.05,299.14,312.05,293.32z M284.09,197.79c-7.01,0-12.66,2.18-16.95,6.54c-4.29,4.36-6.43,9.97-6.43,16.84
			c0,6.34,2.2,11.62,6.6,15.83c4.4,4.21,10.07,6.32,17.01,6.32c3.5,0,6.69-0.56,9.56-1.68c2.87-1.12,5.33-2.67,7.38-4.64
			c2.05-1.97,3.63-4.32,4.75-7.05c1.12-2.72,1.68-5.72,1.68-9c0-4.4-0.99-8.35-2.96-11.86c-1.98-3.51-4.76-6.27-8.33-8.28
			C292.81,198.79,288.71,197.79,284.09,197.79z"/>
	</g>
</g>
</svg>
