<?xml version="1.0" encoding="utf-8"?>
<!-- Generator: Adobe Illustrator 25.4.1, SVG Export Plug-In . SVG Version: 6.00 Build 0)  -->
<svg version="1.1" id="Layer_1" xmlns="http://www.w3.org/2000/svg" xmlns:xlink="http://www.w3.org/1999/xlink" x="0px" y="0px"
	 viewBox="0 0 500 500" style="enable-background:new 0 0 500 500;" xml:space="preserve">
<style type="text/css">
	.st0{fill:#CC0001;}
	.st1{fill:#FFFFFF;}
	.st2{fill:#010066;}
	.st3{fill:#FFCC00;}
	.st4{fill:#ED2939;}
	.st5{fill:#969696;}
	.st6{fill:#FF8A00;stroke:#FF8A00;stroke-width:0.75;stroke-miterlimit:10;}
	.st7{fill:#A9A9A9;stroke:#A9A9A9;stroke-width:0.5;stroke-miterlimit:10;}
	.st8{fill:none;}
	.st9{fill:#FF8A00;}
	.st10{fill:#A9A9A9;stroke:#A9A9A9;stroke-width:2;stroke-miterlimit:10;}
	.st11{fill:#A9A9A9;}
	.st12{fill:#F5891F;}
	.st13{fill:#87C040;}
	.st14{fill:#61757E;}
	.st15{fill:#231F20;}
	.st16{fill:#C1122F;}
	.st17{fill:#2E368E;}
	.st18{fill:url(#SVGID_1_);}
	.st19{fill:#1A477E;}
	.st20{fill:#AB2442;}
	.st21{fill:#0524DD;}
	.st22{fill:#F47920;}
	.st23{fill:url(#SVGID_00000041980510219779065750000012122081511871667844_);}
	.st24{fill:url(#SVGID_00000165207396085291633160000007477192213240734891_);}
	.st25{fill:#F16522;}
	.st26{fill:url(#SVGID_00000113321808291245138750000015467653617906201268_);}
	.st27{fill:url(#SVGID_00000083789880883155240870000009761338333416729531_);}
	.st28{clip-path:url(#SVGID_00000018201825371315949530000000687191331079301048_);}
	.st29{fill:#CE0000;}
	.st30{fill:#D6202A;}
	.st31{fill:#1C427B;}
	.st32{fill:#FF8A00;stroke:#FF8A00;stroke-miterlimit:10;}
	.st33{fill:#252525;}
	.st34{fill:#BA1F63;}
	.st35{clip-path:url(#SVGID_00000029047393668186318220000011140105943268320671_);fill:#FBB41C;}
	.st36{clip-path:url(#SVGID_00000029047393668186318220000011140105943268320671_);fill:#358FCD;}
	.st37{clip-path:url(#SVGID_00000029047393668186318220000011140105943268320671_);fill:#EB1F26;}
	.st38{clip-path:url(#SVGID_00000029047393668186318220000011140105943268320671_);fill:#691E5B;}
	.st39{fill:#FFFFFF;stroke:#FFFFFF;stroke-miterlimit:10;}
	.st40{fill:#BD9A61;}
	.st41{fill:#B90C13;}
	.st42{fill:url(#SVGID_00000109734832907437453620000014899261691500226742_);}
	.st43{fill:url(#SVGID_00000148653553332202205510000006235194789198929283_);}
	.st44{fill:url(#SVGID_00000044898802689443722960000001957358494086816899_);}
	.st45{fill:url(#SVGID_00000082331110897999849520000014857371492086493830_);}
	.st46{fill:url(#SVGID_00000149372372207330500640000000381948656548913542_);}
	.st47{fill:url(#SVGID_00000106105676044163789340000018105271274728279983_);}
	.st48{fill:url(#SVGID_00000137829039162980052070000013357251135229017760_);}
	.st49{fill:#FE439E;}
	.st50{fill:#F7931A;}
	.st51{fill:#35CBA0;}
	.st52{fill:#7747FC;}
	.st53{fill:#FDFDFD;}
	.st54{fill:#C9BBF2;}
	.st55{opacity:0.6;}
	.st56{fill:#CDC0E2;}
	.st57{fill:#9680EA;}
	.st58{fill:#CCC2FF;}
	.st59{fill:#E5E5E5;}
	.st60{fill:#F8F8F8;}
	.st61{fill:#696969;}
</style>
<g>
	<g>
		<path class="st1" d="M63.2,251.19h32.25v46.25H84.87v-14.4c-2.91,4.75-4.23,6.47-6.87,8.72c-6.08,5.29-13.48,8.06-21.41,8.06
			c-21.67,0-38.59-21.15-38.59-48.37c0-27.49,16.78-48.9,38.33-48.9c8.85,0,19.29,2.51,27.75,16.12v-14.41h9.78v29.6H83.68
			c-1.32-5.15-2.91-8.46-5.29-11.36c-5.29-6.48-12.42-10.18-19.82-10.18c-11.5,0-28.02,9.78-28.02,38.59
			c0,22.33,12.03,38.98,28.15,38.98c11.76,0,22.86-9.65,25.5-22.07c0.4-1.85,0.53-3.7,0.66-7.53H63.2V251.19L63.2,251.19z"/>
		<path class="st1" d="M174.86,297.44h-20.09v-12.56c-5.68,8.86-13.35,13.88-23.78,13.88c-13.21,0-22.86-9.12-22.86-21.41
			c0-13.48,11.89-20.22,39.91-22.86c0.93-0.13,3.83-0.39,6.61-0.66v-7.27c0-8.06-6.21-13.08-15.99-13.08
			c-10.31,0-14.93,3.44-17.05,12.56h-10.7c1.58-7.13,3.7-10.84,7.93-14.53c4.76-3.96,11.37-6.08,19.03-6.08
			c14.54,0,26.96,6.74,26.96,24.58v39.12h10.04V297.44L174.86,297.44z M154.64,261.1l-6.48,0.79c-21.67,2.64-28.94,6.61-28.94,15.59
			c0,7.4,6.48,13.48,14.67,13.48c12.56,0,20.75-11.89,20.75-18.37V261.1L154.64,261.1z"/>
		<path class="st1" d="M204.26,239.69c3.17-4.89,9.52-14.67,22.47-14.67c9.38,0,14.8,4.89,16.52,14.8c2.78-4.75,4.1-6.47,6.74-8.72
			c4.62-4.1,9.65-6.08,15.2-6.08c10.84,0,17.18,7,17.18,19.29v44.8h9.78v8.32h-19.95v-49.42c0-9.91-3.3-14.41-10.18-14.41
			c-12.29,0-18.76,14.8-18.76,19.56v35.94h10.17v8.32h-20.35v-51.01c0-8.85-3.3-12.82-10.18-12.82c-10.97,0-18.76,13.61-18.76,20.09
			v35.42h10.04v8.32h-30.53v-8.32h10.31v-54.45h-10.31v-8.46h20.62V239.69L204.26,239.69z"/>
		<path class="st1" d="M302.71,200.18h19.82v41.1c2.64-5.02,10.84-15.73,23.26-15.73c15.99,0,28.15,16.25,28.15,37.13
			c0,19.42-12.95,35.68-28.41,35.68c-12.56,0-18.63-8.32-22.99-14.27v13.35h-20.22v-8.32h10.04v-80.61h-9.65V200.18L302.71,200.18z
			 M322.54,267.44c0,11.76,9.52,22.2,20.35,22.2c12.16,0,19.95-10.97,19.95-28.01c0-16.39-7.79-27.62-19.56-27.62
			c-10.31,0-20.75,11.5-20.75,21.54V267.44L322.54,267.44z"/>
		<polygon class="st1" points="381.99,200.18 402.21,200.18 402.21,289.12 411.72,289.12 411.72,297.44 381.86,297.44 
			381.86,289.12 392.03,289.12 392.03,208.51 381.99,208.51 381.99,200.18 		"/>
		<path class="st1" d="M480.42,277.89c-1.45,4.89-3.04,7.8-5.68,10.83c-5.68,6.61-13.48,10.18-22.33,10.18
			c-19.29,0-32.77-15.06-32.77-36.73c0-20.88,13.48-36.87,31.05-36.87c17.71,0,31.32,13.75,31.32,38.59h-51.41
			c0.92,10.44,3.3,16.25,8.19,21.01c3.7,3.57,8.06,5.29,13.35,5.29c8.19,0,13.21-3.7,16.78-12.29H480.42L480.42,277.89z
			 M470.24,256.08c-0.79-8.85-2.78-13.74-6.87-17.7c-3.17-2.91-7.14-4.36-11.76-4.36c-8.59,0-15.73,5.82-18.9,15.2
			c-0.53,1.71-1.19,4.36-1.45,6.87H470.24L470.24,256.08z"/>
	</g>
	<g>
		<path class="st1" d="M51.04,314.38h22.33l25.64,77.97h7.01v15.2H84.6l-6.08-20.22H45.75l-6.08,20.22H18v-15.2h7.14L51.04,314.38
			L51.04,314.38z M62.27,331.82l-12.42,41.23h24.58L62.27,331.82L62.27,331.82z"/>
		<polygon class="st1" points="105.48,336.84 133.76,336.84 133.76,350.58 126.63,350.58 136.4,392.21 148.04,336.84 166.27,336.84 
			178.03,391.55 187.41,350.58 180.54,350.58 180.54,336.84 208.96,336.84 208.96,350.58 202.88,350.58 187.68,407.54 
			168.91,407.54 157.15,358.38 146.05,407.54 127.02,407.54 111.43,350.58 105.48,350.58 105.48,336.84 		"/>
		<path class="st1" d="M275.82,393.79h6.08v13.75h-21.94v-8.32c-7.27,7.27-12.69,9.78-21.41,9.78c-14.14,0-24.98-9.52-24.98-22.07
			c0-20.75,23.39-23,45.99-25.11c-0.13-10.84-2.78-13.61-13.08-13.61c-7.27,0-12.29,4.1-12.69,10.7l-17.18-0.53
			c0.92-14.14,12.29-23.26,29.07-23.26c19.56,0,30.13,8.86,30.13,24.98V393.79L275.82,393.79z M259.3,374.11
			c-16.65,1.58-27.49,3.04-27.49,12.82c0,5.81,4.62,9.64,11.63,9.64c8.99,0,15.86-6.74,15.86-15.59V374.11L259.3,374.11z"/>
		<path class="st1" d="M318.37,347.81c4.63-8.99,9.78-12.69,17.71-12.69c2.38,0,4.49,0.26,7.93,0.93v16.52
			c-3.17-0.66-5.68-0.93-8.59-0.93c-9.25,0-17.05,6.61-17.05,14.67v27.48h8.46v13.75h-32.64v-13.75h6.87v-43.21h-6.74v-13.74h24.05
			V347.81L318.37,347.81z"/>
		<path class="st1" d="M415.11,384.28c-3.17,15.33-15.99,24.84-33.17,24.84c-19.82,0-34.36-15.46-34.36-37.13
			c0-21.41,14.67-37.26,34.49-37.26c11.23,0,21.14,5.29,27.22,14.41c6.48,9.91,6.74,19.29,7,26.43h-51.01
			c1.72,18.37,13.74,19.29,17.05,19.29c7,0,11.63-3.3,14.4-10.57H415.11L415.11,384.28z M397,363.4
			c-1.19-8.99-6.61-13.87-14.93-13.87c-7.67,0-13.61,5.15-15.86,13.87H397L397,363.4z"/>
	</g>
	<g>
		<path class="st1" d="M18.26,90.88h35.55c15.86,0,21.8,0.53,26.3,2.51c6.21,2.64,14.27,10.17,14.27,22.46
			c0,9.38-3.04,14.01-12.03,18.9c10.57,4.37,15.46,10.97,15.46,23.26c0,15.6-12.03,26.03-30,26.03H18v-15.2h7.27v-62.77h-7V90.88
			L18.26,90.88z M44.3,106.07v22.6h18.37c7.93,0,13.35-4.89,13.35-11.89c0-6.21-6.08-10.7-14.67-10.7H44.3L44.3,106.07z
			 M44.3,143.34v25.51h19.56c8.32,0,14.8-5.42,14.8-12.56c0-7.8-6.61-12.95-16.65-12.95H44.3L44.3,143.34z"/>
		<path class="st1" d="M175.83,160.78c-3.17,15.33-15.99,24.84-33.17,24.84c-19.82,0-34.36-15.46-34.36-37.13
			c0-21.41,14.67-37.26,34.49-37.26c11.23,0,21.14,5.29,27.22,14.41c6.47,9.91,6.74,19.29,7,26.43h-51.01
			c1.72,18.37,13.74,19.29,17.04,19.29c7.01,0,11.63-3.3,14.41-10.57H175.83L175.83,160.78z M157.72,139.9
			c-1.19-8.99-6.61-13.87-14.93-13.87c-7.67,0-13.61,5.15-15.86,13.87H157.72L157.72,139.9z"/>
	</g>
</g>
</svg>
