<?xml version="1.0" encoding="utf-8"?>
<!-- Generator: Adobe Illustrator 25.4.1, SVG Export Plug-In . SVG Version: 6.00 Build 0)  -->
<svg version="1.1" id="Layer_1" xmlns="http://www.w3.org/2000/svg" xmlns:xlink="http://www.w3.org/1999/xlink" x="0px" y="0px"
	 viewBox="0 0 500 500" style="enable-background:new 0 0 500 500;" xml:space="preserve">
<style type="text/css">
	.st0{fill:#CC0001;}
	.st1{fill:#FFFFFF;}
	.st2{fill:#010066;}
	.st3{fill:#FFCC00;}
	.st4{fill:#ED2939;}
	.st5{fill:#969696;}
	.st6{fill:#FF8A00;stroke:#FF8A00;stroke-width:0.75;stroke-miterlimit:10;}
	.st7{fill:#A9A9A9;stroke:#A9A9A9;stroke-width:0.5;stroke-miterlimit:10;}
	.st8{fill:none;}
	.st9{fill:#FF8A00;}
	.st10{fill:#A9A9A9;stroke:#A9A9A9;stroke-width:2;stroke-miterlimit:10;}
	.st11{fill:#A9A9A9;}
	.st12{fill:#F5891F;}
	.st13{fill:#87C040;}
	.st14{fill:#61757E;}
	.st15{fill:#231F20;}
	.st16{fill:#C1122F;}
	.st17{fill:#2E368E;}
	.st18{fill:url(#SVGID_1_);}
	.st19{fill:#1A477E;}
	.st20{fill:#AB2442;}
	.st21{fill:#0524DD;}
	.st22{fill:#F47920;}
	.st23{fill:url(#SVGID_00000096056448291269709040000005227896105980293046_);}
	.st24{fill:url(#SVGID_00000170979970145732860490000007844779366680410767_);}
	.st25{fill:#F16522;}
	.st26{fill:url(#SVGID_00000015334471869251516930000013944776907000402318_);}
	.st27{fill:url(#SVGID_00000064318887503950063260000011340259742152760251_);}
	.st28{clip-path:url(#SVGID_00000047779126493564303530000016882748566036366015_);}
	.st29{fill:#CE0000;}
	.st30{fill:#D6202A;}
	.st31{fill:#1C427B;}
	.st32{fill:#FF8A00;stroke:#FF8A00;stroke-miterlimit:10;}
	.st33{fill:#252525;}
	.st34{fill:#BA1F63;}
	.st35{clip-path:url(#SVGID_00000078023038677867252030000000135527047454908091_);fill:#FBB41C;}
	.st36{clip-path:url(#SVGID_00000078023038677867252030000000135527047454908091_);fill:#358FCD;}
	.st37{clip-path:url(#SVGID_00000078023038677867252030000000135527047454908091_);fill:#EB1F26;}
	.st38{clip-path:url(#SVGID_00000078023038677867252030000000135527047454908091_);fill:#691E5B;}
	.st39{fill:#FFFFFF;stroke:#FFFFFF;stroke-miterlimit:10;}
	.st40{fill:#BD9A61;}
	.st41{fill:#B90C13;}
	.st42{fill:url(#SVGID_00000085222519925165231650000002999480387292742073_);}
	.st43{fill:url(#SVGID_00000010288499461689059770000004929427574566900919_);}
	.st44{fill:url(#SVGID_00000004533109722280978670000004592571659745208504_);}
	.st45{fill:url(#SVGID_00000018234552756346249040000003670964125170504367_);}
	.st46{fill:url(#SVGID_00000162354429519106820050000014527914780510504335_);}
	.st47{fill:url(#SVGID_00000147179589839531116040000012461333213713031567_);}
	.st48{fill:url(#SVGID_00000006667087136173998890000016876471526917676945_);}
	.st49{fill:#FE439E;}
	.st50{fill:#F7931A;}
	.st51{fill:#35CBA0;}
	.st52{fill:#7747FC;}
	.st53{fill:#FDFDFD;}
	.st54{fill:#C9BBF2;}
	.st55{opacity:0.6;}
	.st56{fill:#CDC0E2;}
	.st57{fill:#9680EA;}
	.st58{fill:#CCC2FF;}
	.st59{fill:#E5E5E5;}
	.st60{fill:#F8F8F8;}
	.st61{fill:#696969;}
</style>
<g>
	<g>
		<path class="st1" d="M122.46,426.58c-0.8,18.18-12.95,29.99-29.19,29.99c-8.52,0-15.84-3.29-21.63-9.81
			c-4.82-5.39-7.4-12.39-7.4-20.27c0-7.96,3.05-15.28,8.93-21.07c5.55-5.55,12.38-8.29,20.75-8.29c11.66,0,20.67,5.71,25.09,15.6
			h-10.21c-3.78-4.82-9.09-7.31-15.52-7.31c-5.39,0-10.37,2.09-14.15,5.95c-4.02,4.1-6.27,9.73-6.27,15.2
			c0,6.03,2.09,11.5,5.79,15.36c3.94,4.1,9.33,6.43,14.64,6.43c8.6,0,15.36-4.59,19.7-13.75H87.08v-8.04H122.46z"/>
		<path class="st1" d="M131.36,455.45h-8.77l22.36-57.18H153l22.35,57.18h-9.09l-6.27-16.64H137.8L131.36,455.45z M148.98,409.05
			l-8.2,21.71h16.25L148.98,409.05z"/>
		<path class="st1" d="M178.47,455.45v-57.18h12.3l16.57,44.23l16.57-44.23h12.14v57.18h-7.8l0.56-49.62l-18.57,49.62h-5.87
			l-18.49-49.62l0.56,49.62H178.47z"/>
		<path class="st1" d="M272.45,456.57c-8.45,0-15.6-3.13-21.23-9.08c-5.39-5.71-8.12-12.79-8.12-21.23c0-7.88,2.98-15.12,8.69-20.67
			c5.63-5.55,12.71-8.45,20.83-8.45c13.35,0,24.76,8.77,28.47,22.84h-15.12c-3.05-5.63-7.64-8.61-13.27-8.61
			c-8.53,0-15.2,6.59-15.2,14.96c0,9.08,7.08,16.08,14.96,16.08c5.39,0,10.13-2.9,13.19-8.2h15.2
			C297.05,448.13,286.2,456.57,272.45,456.57z"/>
		<path class="st1" d="M314.96,455.45h-15.28l21.95-57.18h11.42l21.95,57.18h-15.44l-2.82-8.28h-18.89L314.96,455.45z
			 M327.34,417.01l-5.71,18.33h11.34L327.34,417.01z"/>
		<path class="st1" d="M356.11,455.45v-57.18h18.98c6.03,0,10.62,0.4,14.48,3.13c5.07,3.54,7.72,8.92,7.72,16
			c0,9.25-4.83,16.16-12.95,18.41l13.99,19.62h-17.29l-10.94-18.41v18.41H356.11z M372.84,424.65c6.92,0,10.29-1.77,10.29-6.92
			c0-4.75-2.97-6.67-9.16-6.67h-3.86v13.59H372.84z"/>
		<path class="st1" d="M404.67,455.45v-57.18h31.04v12.63h-17.05v9.24h17.05v12.7h-17.05v9.97h17.05v12.62H404.67z"/>
	</g>
	<g>
		<path class="st1" d="M425.58,241.23c-1.53-0.87-3.23-1.45-5.04-1.7c-0.43-0.07-0.85-0.09-1.28-0.13
			c-0.23-0.01-0.45-0.07-0.69-0.07h-0.65c-0.58-0.01-1.15-0.04-1.72,0h-111.8c-7.91,0-14.33,6.41-14.33,14.32
			c0,7.91,6.42,14.33,14.33,14.33h43.44c1.43,0.01,2.59,1.18,2.59,2.61c0,0.83-0.44,1.51-1.04,1.99
			c-23.82,12.72-54.45,20.43-87.97,20.43c-8.16,0-16.13-0.48-23.89-1.35v32.52c6.76,0.5,13.63,0.78,20.6,0.78
			c46.65,0,89.08-11.4,120.89-30.04l0.01,0.04c0.39-0.21,0.84-0.33,1.31-0.33c1.56,0,2.82,1.26,2.82,2.82
			c0,0.28-0.05,0.56-0.14,0.82l-6.63,18c-3.49,9.47,1.36,19.97,10.83,23.45c2.08,0.77,4.21,1.13,6.31,1.13
			c7.43,0,14.42-4.57,17.14-11.96l23.98-65.08C437.89,254.99,433.83,245.33,425.58,241.23z"/>
		<path class="st1" d="M261.41,118.35c33.78,0,64.7,7.78,88.6,20.68c0,0,15.18,10.92,22.4,0.44c8.29-12.03-8.26-19.52-8.26-19.52
			C334.5,106,297.82,97.76,258.12,97.76c-6.97,0-13.83,0.28-20.6,0.78v21.16C245.28,118.83,253.26,118.35,261.41,118.35z"/>
		<g>
			<path class="st1" d="M89.73,43.43c-13.95,0-25.26,11.31-25.26,25.26v275.65c0,13.96,11.31,25.26,25.26,25.26h147.78v-45.41
				c-88.92-6.5-157.98-54.52-157.98-112.83c0-58.31,69.06-106.33,157.98-112.83V43.43H89.73z"/>
			<path class="st1" d="M124.29,205.68c0,43.03,48.9,78.78,113.23,85.98V119.7C173.18,126.9,124.29,162.64,124.29,205.68z"/>
		</g>
	</g>
</g>
</svg>
