<?xml version="1.0" encoding="utf-8"?>
<!-- Generator: Adobe Illustrator 26.2.1, SVG Export Plug-In . SVG Version: 6.00 Build 0)  -->
<svg version="1.1" id="Layer_1" xmlns="http://www.w3.org/2000/svg" xmlns:xlink="http://www.w3.org/1999/xlink" x="0px" y="0px"
	 viewBox="0 0 100 100" style="enable-background:new 0 0 100 100;" xml:space="preserve">
<style type="text/css">
	.st0{fill:#F11652;}
</style>
<path class="st0" d="M52.14,77.56c6.56-0.5,12.74-3.35,17.41-8.01c4.67-4.66,7.51-10.85,8.01-17.4c0.49-6.3-1.2-12.62-4.76-17.78
	c-0.95-1.39-2.04-2.7-3.25-3.91c-8.27-8.27-20.92-10.44-31.47-5.4l-0.42,0.2l-0.01,0.01c-2.66,1.33-5.08,3.07-7.2,5.19
	c-2.24,2.24-4.06,4.81-5.4,7.63c-1.81,3.79-2.69,7.86-2.69,11.89c0,7.19,2.8,14.28,8.09,19.58c1.21,1.21,2.52,2.3,3.9,3.24
	C39.53,76.36,45.85,78.05,52.14,77.56z M43.38,70.08l3.76-7.33l9.51-1.51l5.81,5.84c-3.15,2.3-6.89,3.7-10.81,4
	C48.83,71.3,46.02,70.95,43.38,70.08z M43.1,48.91l5.81-5.81l7.32,3.73l-1.29,8.11l-8.11,1.28L43.1,48.91z M71.08,51.65
	c-0.3,3.94-1.71,7.69-4.03,10.86l-5.81-5.84l1.51-9.51l7.35-3.72C70.96,46.06,71.3,48.86,71.08,51.65z M64.96,35.04
	c0.81,0.81,1.54,1.68,2.2,2.6l-7.35,3.72l-8.58-4.37l-1.26-8.13C55.47,28.86,60.9,30.99,64.96,35.04z M35.04,35.05
	c1.71-1.71,3.67-3.1,5.83-4.13l0.15-0.07c0.82-0.39,1.67-0.7,2.52-0.97L44.82,38l-6.81,6.81l-8.13-1.31
	c0.29-0.89,0.62-1.76,1.03-2.62C31.94,38.72,33.33,36.76,35.04,35.05z M28.86,49.91l8.12,1.31l4.37,8.58l-3.76,7.33
	c-0.9-0.65-1.76-1.37-2.55-2.17C30.97,60.89,28.85,55.43,28.86,49.91z"/>
</svg>
