<?xml version="1.0" encoding="utf-8"?>
<!-- Generator: Adobe Illustrator 26.2.1, SVG Export Plug-In . SVG Version: 6.00 Build 0)  -->
<svg version="1.1" id="Layer_1" xmlns="http://www.w3.org/2000/svg" xmlns:xlink="http://www.w3.org/1999/xlink" x="0px" y="0px"
	 viewBox="0 0 100 26" style="enable-background:new 0 0 100 26;" xml:space="preserve">
<style type="text/css">
	.st0{fill:#FFFFFF;}
	.st1{fill-rule:evenodd;clip-rule:evenodd;fill:#FFFFFF;}
</style>
<g>
	<path class="st0" d="M63.9,15.3c0-2-1.4-3.2-3.9-3.2c-1.4,0-2.4,0.3-3,0.6c-0.4,0.5-0.5,1.1-0.7,2c0.9-0.4,1.8-0.7,3.2-0.7
		c1.1,0,2,0.5,2,1.8c0,1.4-0.9,2.4-5.6,5.1c0,0.3,0,0.9,0.1,1.6h7.8c0.2-0.7,0.4-1.2,0.4-1.9h-6.6C60.9,19.5,63.9,18.3,63.9,15.3
		 M83.6,15.3c0-2-1.4-3.2-3.9-3.2c-1.4,0-2.4,0.3-3,0.6c-0.4,0.5-0.5,1.1-0.7,2c0.9-0.4,1.8-0.7,3.2-0.7c1.1,0,2,0.5,2,1.8
		c0,1.4-0.9,2.4-5.6,5.1c0,0.3,0,0.9,0.1,1.6h7.8c0.2-0.7,0.4-1.2,0.4-1.9h-6.6C80.7,19.5,83.6,18.3,83.6,15.3 M70.2,16.1
		c-0.5,0.4-1,0.8-1.3,1.3c0.4,0.5,0.8,0.9,1.3,1.3c0.5-0.4,0.9-0.8,1.3-1.3C71.1,16.9,70.7,16.4,70.2,16.1 M70.2,12.1
		c-2.9,0-5.1,1.8-5.1,4.6c0,3.7,3.6,5.9,5.1,5.9c1.5,0,5.1-2.2,5.1-5.9C75.3,13.8,73.1,12.1,70.2,12.1 M70.2,21.8
		c-0.7,0-2.7-1.3-2.7-4.9c0-1.8,1-2.9,2.7-2.9c1.7,0,2.7,1.1,2.7,2.9C72.9,20.4,70.8,21.8,70.2,21.8 M15.3,22.6l-3.9-2.1
		c2.2-0.8,3.8-2.4,3.8-4.6c0-3-2.2-4.5-5.1-4.5c-2.7,0-5.2,1.7-5.2,5c0,2.8,2.1,4.4,4.4,5.6l7.4,3.9C16.8,24.3,16.6,23.3,15.3,22.6
		 M10.8,20.2l-0.1-0.1c-1.4-0.7-3.3-1.9-3.3-4c0-1.9,1.2-2.8,2.7-2.8c1.6,0,2.6,1.2,2.6,3.2C12.8,18,12,19.2,10.8,20.2 M92.7,15.3
		c0-2-1.4-3.2-3.9-3.2c-1.4,0-2.4,0.3-3,0.6c-0.4,0.5-0.5,1.1-0.7,2c0.9-0.4,1.8-0.7,3.2-0.7c1.1,0,2,0.5,2,1.8
		c0,1.4-0.9,2.4-5.6,5.1c0,0.3,0,0.9,0.1,1.6h7.8c0.2-0.7,0.4-1.2,0.4-1.9h-6.6C89.8,19.5,92.7,18.3,92.7,15.3 M16.3,19
		c0,2.4,0.9,3.6,2.1,3.6c1.4,0,2.6-1.3,3.7-4v3.8h2.3v-8.1c-1.1-0.1-2-0.1-3.1-0.1C18.4,14.3,16.3,15.5,16.3,19 M19.6,20.6
		c-0.6,0-0.9-0.8-0.9-3.1c0-1.2,0.6-1.5,2.2-1.5c0.4,0,0.8,0,1.1,0C21.5,17.6,20.8,20.6,19.6,20.6 M51.9,18.1v-0.8
		c0-1-0.1-1.9-0.2-2.9h-2.3c0.1,1,0.1,1.9,0.1,2.9v5.1h2.3c0-2.9,0.9-6.1,3.4-5.8c0-0.5-0.1-1.7-0.2-2.4
		C53.3,14.4,52.4,16,51.9,18.1 M39.6,19c0,0.6,0.1,1.1,0.2,1.5h-8.6c-1.1,0-1.9-0.3-1.9-1.3v-2.9H32c0.2-0.7,0.4-1.3,0.4-1.9h-3.1
		c0-0.9,0.1-1.7,0.1-2.6c-1,0.4-1.8,0.8-2.5,1.5v1.1h-1.4c-0.1,0.8-0.1,1.4-0.1,1.9H27v3.1c0,2.2,1.3,3.1,3.1,3.1h11.7
		c1.4,0,2.5-1.2,3.6-3.8v3.8h2.3v-8.1c-1.1-0.1-2-0.1-3.1-0.1C41.7,14.3,39.6,15.5,39.6,19 M42.9,20.6c-0.6,0-0.9-0.8-0.9-3.1
		c0-1.2,0.6-1.5,2.2-1.5c0.4,0,0.8,0,1.1,0C44.8,17.6,44.1,20.6,42.9,20.6"/>
	<path class="st0" d="M83.8,8.6c-0.3,0.1-0.7,0.2-1.1,0.2C82.4,8.9,81.9,9,81.3,9c-0.6,0-1.2-0.1-1.8-0.2c-0.6-0.2-1.1-0.4-1.6-0.8
		c-0.5-0.3-0.9-0.8-1.2-1.4c-0.3-0.6-0.5-1.3-0.5-2.1c0-0.8,0.1-1.4,0.4-2c0.2-0.6,0.6-1,1-1.4s1-0.7,1.6-0.8c0.6-0.2,1.3-0.3,2-0.3
		c0.4,0,0.9,0,1.3,0.1s0.8,0.2,1.3,0.3l-0.2,1.9c-0.4-0.2-0.7-0.4-1.1-0.5c-0.4-0.1-0.8-0.1-1.2-0.1c-0.4,0-0.8,0.1-1.1,0.2
		c-0.3,0.1-0.6,0.3-0.9,0.6c-0.2,0.2-0.4,0.5-0.5,0.9c-0.1,0.3-0.2,0.7-0.2,1.1c0,0.4,0.1,0.8,0.2,1.1s0.3,0.6,0.6,0.9
		C79.7,6.8,80,7,80.4,7.1c0.4,0.1,0.7,0.2,1.2,0.2c0.4,0,0.8,0,1.1-0.1c0.4-0.1,0.7-0.2,1-0.3L83.8,8.6z"/>
	<path class="st0" d="M92.2,5.5c0,0.6-0.1,1.1-0.3,1.5c-0.2,0.4-0.4,0.8-0.8,1.1c-0.3,0.3-0.7,0.5-1.2,0.6c-0.5,0.1-1,0.2-1.5,0.2
		c-0.6,0-1.1-0.1-1.5-0.2c-0.5-0.1-0.9-0.3-1.2-0.6c-0.3-0.3-0.6-0.6-0.8-1.1c-0.2-0.4-0.3-0.9-0.3-1.5V0.1h2.3v5
		c0,0.3,0,0.6,0.1,0.8c0,0.3,0.1,0.5,0.2,0.7c0.1,0.2,0.3,0.3,0.5,0.5c0.2,0.1,0.4,0.2,0.7,0.2c0.3,0,0.5-0.1,0.7-0.2
		c0.2-0.1,0.3-0.3,0.5-0.5c0.1-0.2,0.2-0.4,0.2-0.7c0-0.3,0.1-0.5,0.1-0.8v-5h2.3L92.2,5.5L92.2,5.5z"/>
	<path class="st0" d="M93.3,0.1h2.8c1.3,0,2.3,0.2,2.9,0.7C99.7,1.3,100,2,100,3c0,0.9-0.3,1.6-0.9,2.1c-0.6,0.5-1.5,0.7-2.5,0.7
		h-0.9v3h-2.3C93.3,8.8,93.3,0.1,93.3,0.1z M95.7,4.2h0.6c0.2,0,0.4,0,0.6-0.1c0.2,0,0.3-0.1,0.5-0.2c0.1-0.1,0.2-0.2,0.3-0.4
		c0.1-0.2,0.1-0.3,0.1-0.6c0-0.2,0-0.4-0.1-0.6c-0.1-0.2-0.2-0.3-0.3-0.4C97.1,2,97,1.9,96.8,1.8c-0.2,0-0.4-0.1-0.6-0.1h-0.6V4.2z"
		/>
	<polygon class="st0" points="28,0.1 30.4,0.1 31.5,6.8 31.5,6.8 32.7,0.1 35.6,0.1 36.9,6.8 36.9,6.8 38,0.1 40.3,0.1 38.3,8.8 
		35.3,8.8 34.1,2.2 34.1,2.2 32.9,8.8 29.9,8.8 	"/>
	<path class="st0" d="M40.3,4.5c0-0.7,0.1-1.3,0.3-1.9c0.2-0.6,0.5-1,0.8-1.4c0.4-0.4,0.8-0.7,1.4-0.9C43.4,0.1,44,0,44.7,0
		s1.3,0.1,1.9,0.3c0.5,0.2,1,0.5,1.4,0.9c0.4,0.4,0.6,0.9,0.8,1.4c0.2,0.6,0.3,1.2,0.3,1.9c0,0.7-0.1,1.3-0.3,1.9
		c-0.2,0.6-0.5,1-0.8,1.4c-0.4,0.4-0.8,0.7-1.4,0.9C46,8.9,45.4,9,44.7,9c-0.7,0-1.3-0.1-1.9-0.3c-0.5-0.2-1-0.5-1.4-0.9
		c-0.4-0.4-0.6-0.9-0.8-1.4C40.4,5.8,40.3,5.2,40.3,4.5 M42.7,4.5c0,0.4,0,0.7,0.1,1c0.1,0.3,0.2,0.6,0.3,0.9
		c0.2,0.3,0.4,0.5,0.6,0.6c0.2,0.2,0.5,0.2,0.9,0.2s0.6-0.1,0.9-0.2c0.2-0.2,0.5-0.4,0.6-0.6c0.2-0.3,0.3-0.6,0.3-0.9
		c0.1-0.3,0.1-0.7,0.1-1c0-0.4,0-0.7-0.1-1.1c-0.1-0.3-0.2-0.6-0.3-0.9c-0.2-0.3-0.4-0.5-0.6-0.6c-0.2-0.1-0.5-0.2-0.9-0.2
		s-0.6,0.1-0.9,0.2c-0.2,0.1-0.5,0.4-0.6,0.6c-0.2,0.3-0.3,0.5-0.3,0.9C42.8,3.8,42.7,4.1,42.7,4.5"/>
	<path class="st0" d="M49.9,0.1h4.1c0.4,0,0.7,0,1.1,0.1c0.3,0.1,0.6,0.2,0.9,0.4c0.3,0.2,0.5,0.4,0.6,0.7c0.1,0.3,0.2,0.6,0.2,1
		c0,0.6-0.1,1.1-0.4,1.4c-0.3,0.4-0.7,0.6-1.3,0.8v0c0.2,0,0.3,0.1,0.4,0.2c0.1,0.1,0.2,0.2,0.3,0.4c0.1,0.2,0.2,0.3,0.2,0.6
		c0.1,0.2,0.2,0.5,0.3,0.7l0.8,2.4h-2.4l-0.5-1.6c-0.1-0.4-0.2-0.7-0.3-0.9c-0.1-0.2-0.2-0.4-0.3-0.6c-0.1-0.1-0.3-0.2-0.4-0.3
		c-0.2-0.1-0.3-0.1-0.6-0.1h-0.5v3.4h-2.3L49.9,0.1L49.9,0.1z M52.2,3.8h0.6c0.2,0,0.4,0,0.6,0c0.2,0,0.4-0.1,0.5-0.1
		c0.2-0.1,0.3-0.2,0.4-0.3c0.1-0.1,0.2-0.3,0.2-0.6c0-0.2,0-0.4-0.1-0.5C54.3,2.1,54.2,2,54,2c-0.2-0.1-0.3-0.1-0.5-0.1
		c-0.2,0-0.4,0-0.6,0h-0.6V3.8z"/>
	<polygon class="st0" points="58.3,0.1 60.6,0.1 60.6,7.1 64.2,7.1 64.2,8.8 58.3,8.8 	"/>
	<path class="st0" d="M65,0.1h3.2c0.8,0,1.4,0.1,2.1,0.2c0.6,0.1,1.2,0.4,1.6,0.7c0.5,0.3,0.8,0.8,1.1,1.3c0.3,0.6,0.4,1.3,0.4,2.1
		c0,0.8-0.1,1.5-0.4,2.1c-0.3,0.6-0.6,1-1.1,1.4c-0.5,0.3-1,0.6-1.6,0.7c-0.6,0.2-1.3,0.2-2.1,0.2H65V0.1z M67.3,7.1h0.9
		c0.9,0,1.5-0.2,2-0.7c0.5-0.4,0.7-1.1,0.7-2s-0.2-1.5-0.7-2c-0.5-0.4-1.1-0.7-2-0.7h-0.9V7.1z"/>
	<polygon class="st1" points="0,0.1 0,8.8 2.7,8.8 2.7,5.7 4.7,5.7 5.3,3.8 2.7,3.8 2.7,2 6,2 6.7,0.1 	"/>
	<rect x="7.5" y="0.1" class="st1" width="2.7" height="8.7"/>
	<polygon class="st1" points="12.1,0.1 12.1,8.8 14.8,8.8 14.8,5.7 16.7,5.7 17.4,3.8 14.8,3.8 14.8,2 18,2 18.7,0.1 	"/>
	<path class="st1" d="M26.5,8.8h-2.7l-0.4-1.2h-3.1L20,8.8h-2.7l3.2-8.7h2.8L26.5,8.8z M22.9,6l-1.1-3.6l-1,3.6H22.9z"/>
</g>
</svg>
